<?xml version="1.0" encoding="utf-8"?>
<!-- Generator: Adobe Illustrator 25.4.1, SVG Export Plug-In . SVG Version: 6.00 Build 0)  -->
<svg version="1.1" id="Layer_1" xmlns="http://www.w3.org/2000/svg" xmlns:xlink="http://www.w3.org/1999/xlink" x="0px" y="0px"
	 viewBox="0 0 17.7 25" style="enable-background:new 0 0 17.7 25;" xml:space="preserve">
<style type="text/css">
	.st0{fill:#3C2F80;}
</style>
<g>
	<path class="st0" d="M11.2,17l-2-2c0.7-0.9,1.1-2,1.1-3.2C10.3,9,8,6.7,5.1,6.7S0,9,0,11.9S2.3,17,5.1,17c1.2,0,2.2-0.4,3.1-1l2,2
		c0.1,0.1,0.3,0.2,0.5,0.2s0.3-0.1,0.5-0.2C11.4,17.7,11.4,17.3,11.2,17z M5.1,15.7c-2.1,0-3.8-1.7-3.8-3.8c0-2.1,1.7-3.8,3.8-3.8
		S9,9.8,9,11.9C9,14,7.2,15.7,5.1,15.7z"/>
</g>
</svg>
